<?xml version="1.0" encoding="iso-8859-1"?>
<!-- Generator: Adobe Illustrator 19.1.0, SVG Export Plug-In . SVG Version: 6.00 Build 0)  -->
<svg version="1.1" id="Capa_1" xmlns="http://www.w3.org/2000/svg" xmlns:xlink="http://www.w3.org/1999/xlink" x="0px" y="0px"
	 viewBox="0 0 443.357 443.357" style="enable-background:new 0 0 443.357 443.357;" xml:space="preserve">
<g>
	<path style="fill:#F4E84A;" d="M417.315,218.202v125.56c0,25.89-10.49,49.33-27.46,66.29c-16.96,16.97-40.39,27.46-66.28,27.46
		c-25.17,0-49.78-6.97-71.14-20.05c-2.96-1.81-5.85-3.74-8.68-5.78l-8.57-6.19c-8.06-5.83-18.95-5.83-27.01,0l-8.57,6.19
		c-1.89,1.37-3.81,2.68-5.76,3.94c-0.96,0.62-1.93,1.23-2.91,1.83c-9.2,5.64-19,10.14-29.2,13.44c-5.51,1.78-11.13,3.21-16.83,4.28
		c-0.53,0.1-1.07,0.2-1.61,0.29c-7.72,1.36-15.59,2.05-23.51,2.05c-10.15,0-19.92-1.61-29.08-4.6c-0.36-0.12-0.72-0.23-1.07-0.35
		h-0.01c-17.46-5.93-32.6-16.87-43.72-31.1c-0.01-0.01-0.02-0.02-0.02-0.03c-10.38-13.26-17.25-29.41-19.24-47.03
		c-0.14-1.21-0.25-2.44-0.34-3.67c-0.17-2.3-0.26-4.62-0.26-6.97v-125.56c37.83,46.14,98.2,67.39,156.59,55.12
		c1.36-0.28,2.7-0.57,4.02-0.85c21.39-4.51,43.47-4.59,64.89-0.23c3.2,0.65,6.54,1.32,9.98,2.02
		c58.01,11.68,117.73-9.64,155.25-55.4L417.315,218.202z"/>
	<g>
		<path style="fill:#46B9CC;" d="M64.305,394.392c-5,0-9.68,1.33-13.71,3.67c5.65-5.03,9.21-12.36,9.21-20.52
			c0-14.733-11.612-26.766-26.178-27.447c11.014-3.581,18.978-13.92,18.978-26.123c0-5.05-1.37-9.79-3.76-13.86
			c-4.61-7.9-13.06-13.29-22.8-13.61v44.26c0,2.35,0.09,4.67,0.26,6.97c0.072,0.987,0.17,1.969,0.273,2.946
			c-0.09,0.02-0.183,0.034-0.273,0.054c1.4,19.05,8.48,36.52,19.58,50.7c0.05-0.02,0.1-0.04,0.15-0.08
			c-0.04,0.03-0.09,0.07-0.13,0.11c11.12,14.23,26.26,25.17,43.72,31.1h0.01c1.38-3.29,2.15-6.9,2.15-10.69
			C91.786,406.702,79.485,394.392,64.305,394.392z"/>
		<path style="fill:#46B9CC;" d="M325.736,410.992c-11.19,0-20.83,6.7-25.1,16.31c-1.11-14.16-12.95-25.31-27.39-25.31
			c-8.048,0-15.273,3.467-20.294,8.975c-0.121-5.489-1.647-10.643-4.257-15.085c-5.42-9.28-15.49-15.52-27.02-15.52
			c-16.44,0-29.92,12.69-31.19,28.82c-0.05,0.588-0.074,1.179-0.087,1.774c-5.02-5.502-12.241-8.964-20.283-8.964
			c-14.44,0-26.28,11.15-27.39,25.31c0,0.001,0,0.002,0,0.002c-4.27-9.609-13.91-16.309-25.1-16.309
			c-13.28,0-24.36,9.41-26.92,21.92c9.16,2.99,18.93,4.6,29.08,4.6c7.92,0,15.79-0.69,23.51-2.05l1.61-0.29c0,0,0-0.002,0-0.002l0,0
			c5.7-1.07,11.32-2.5,16.83-4.28c10.199-3.3,19.992-7.814,29.198-13.452c0.001,0.004,0.001,0.008,0.002,0.012
			c0.98-0.6,1.95-1.21,2.91-1.83c1.95-1.26,3.87-2.57,5.76-3.94l8.57-6.19c8.06-5.83,18.95-5.83,27.01,0l8.57,6.19
			c1.892,1.364,3.823,2.659,5.771,3.922c-0.004,0.006-0.008,0.012-0.011,0.018c0.581,0.376,1.173,0.732,1.759,1.098
			c0.389,0.244,0.769,0.502,1.161,0.742c0.001-0.005,0.001-0.01,0.002-0.015c9.203,5.634,18.992,10.146,29.188,13.445
			c5.51,1.78,11.13,3.21,16.83,4.28c-0.13,1.08,1.22,2.09,1.61,0.29c7.72,1.36,15.59,2.05,23.51,2.05c10.15,0,19.92-1.61,29.08-4.6
			C350.095,420.402,339.016,410.992,325.736,410.992z"/>
		<path style="fill:#46B9CC;" d="M394.516,310.112c-2.39,4.07-3.76,8.81-3.76,13.86c0,12.203,7.964,22.542,18.978,26.123
			c-14.566,0.681-26.178,12.714-26.178,27.447c0,8.16,3.56,15.49,9.21,20.52c-4.03-2.34-8.71-3.67-13.71-3.67
			c-15.18,0-27.48,12.31-27.48,27.48c0,3.79,0.77,7.4,2.15,10.69h0.01c17.46-5.93,32.6-16.87,43.72-31.1
			c-0.04-0.04-0.09-0.08-0.13-0.11c0.05,0.04,0.1,0.06,0.15,0.08c11.1-14.18,18.18-31.65,19.58-50.7
			c-0.09-0.02-0.182-0.034-0.273-0.054c0.103-0.977,0.201-1.959,0.273-2.946c0.17-2.3,0.26-4.62,0.26-6.97v-44.26
			C407.575,296.822,399.125,302.212,394.516,310.112z"/>
	</g>
	<path style="fill:#F48438;" d="M221.68,279.77l-36.818-146.547C172.856,85.431,186.836,34.845,221.68,0l0,0l0,0
		c34.845,34.845,48.825,85.431,36.817,133.223L221.68,279.77z"/>
	<g>
		<line style="fill:#F4E84A;" x1="222.008" y1="336.525" x2="222.008" y2="51.525"/>
		<path style="fill:#F4E84A;" d="M222.008,336.525c0,0-0.099-1.113-0.286-3.201c-0.158-2.087-0.45-5.149-0.703-9.045
			c-0.269-3.896-0.626-8.628-0.914-14.055c-0.318-5.427-0.678-11.55-0.981-18.23c-0.624-13.359-1.171-28.945-1.537-45.645
			c-0.08-4.175-0.161-8.419-0.244-12.716c-0.076-4.297-0.145-8.645-0.178-13.029c-0.112-8.767-0.127-17.673-0.156-26.58
			c0.027-8.906,0.036-17.812,0.148-26.58c0.034-4.384,0.093-8.732,0.174-13.029c0.082-4.297,0.162-8.541,0.241-12.716
			c0.364-16.699,0.911-32.285,1.536-45.645c0.305-6.68,0.663-12.803,0.985-18.23c0.29-5.427,0.647-10.159,0.919-14.055
			c0.255-3.896,0.547-6.958,0.707-9.045c0.188-2.087,0.287-3.201,0.287-3.201s0.1,1.113,0.287,3.201
			c0.16,2.087,0.452,5.149,0.707,9.045c0.272,3.896,0.629,8.628,0.919,14.055c0.322,5.427,0.68,11.55,0.985,18.23
			c0.626,13.359,1.173,28.945,1.536,45.645c0.079,4.175,0.16,8.419,0.242,12.716c0.081,4.297,0.14,8.645,0.174,13.029
			c0.112,8.767,0.121,17.673,0.148,26.58c-0.028,8.906-0.044,17.812-0.156,26.58c-0.033,4.384-0.101,8.732-0.178,13.029
			c-0.082,4.297-0.164,8.541-0.244,12.716c-0.366,16.699-0.913,32.285-1.537,45.645c-0.302,6.68-0.663,12.803-0.981,18.23
			c-0.288,5.427-0.646,10.159-0.914,14.055c-0.254,3.896-0.545,6.958-0.703,9.045C222.108,335.412,222.008,336.525,222.008,336.525z
			"/>
	</g>
	<g>
		<path style="fill:#F4E84A;" d="M221.68,276.397c0-45.598-36.898-82.496-82.496-82.496L221.68,276.397"/>
		<path style="fill:#F4E84A;" d="M221.68,276.397c0-45.598,36.898-82.496,82.496-82.496L221.68,276.397"/>
	</g>
	<path style="fill:#FFFFFF;" d="M395.482,360.91c-0.302,0-0.605-0.023-0.913-0.07c-3.275-0.5-5.525-3.56-5.026-6.836
		c0.514-3.363,0.773-6.809,0.773-10.242v-33.65c0-3.313,2.687-6,6-6s6,2.687,6,6v33.65c0,4.037-0.307,8.091-0.91,12.051
		C400.952,358.783,398.396,360.91,395.482,360.91z"/>
	<path style="fill:#FFFFFF;" d="M396.315,284.866c-3.313,0-6-2.687-6-6V266.13c0-3.313,2.687-6,6-6s6,2.687,6,6v12.735
		C402.315,282.179,399.629,284.866,396.315,284.866z"/>
	<g>
		<g>
			<g>
				<path style="fill:#FFFFFF;" d="M167.448,373.164c6.205-0.85,10.515-6.629,9.707-12.84l0,0
					c-2.886-22.182-22.336-38.372-44.679-37.281c-18.881,0.922-45.097,4.589-47.861-5.357
					C94.819,354.405,124.642,379.03,167.448,373.164z"/>
				<path style="fill:#F28F4C;" d="M155.178,380.02c-16.771,0-32.084-4.659-44.85-13.735c-15.027-10.685-25.917-26.93-31.492-46.978
					c-0.001-0.005-0.002-0.009-0.004-0.014v0c-0.887-3.192,0.981-6.5,4.175-7.387c3.194-0.89,6.5,0.982,7.388,4.174l0,0
					c0.006,0,1.426,1.798,9.794,2.268c6.54,0.367,14.67-0.183,22.534-0.714c3.306-0.224,6.43-0.435,9.459-0.583
					c25.317-1.252,47.661,17.433,50.923,42.499c1.234,9.494-5.424,18.268-14.843,19.559l0,0
					C163.819,379.717,159.449,380.02,155.178,380.02z M95.556,330.012c13.074,27.525,39.221,41.573,71.077,37.207
					c2.908-0.399,4.959-3.145,4.571-6.123c-2.46-18.91-19.374-32.997-38.437-32.062c-2.918,0.143-5.987,0.35-9.235,0.57
					C113.376,330.292,103.486,330.961,95.556,330.012z"/>
			</g>
		</g>
		<g>
			<g>
				<path style="fill:#FFFFFF;" d="M275.913,373.164c-6.205-0.85-10.515-6.629-9.707-12.84l0,0
					c2.886-22.182,22.336-38.372,44.679-37.281c18.881,0.922,45.097,4.589,47.861-5.357
					C348.542,354.405,318.719,379.03,275.913,373.164z"/>
				<path style="fill:#F28F4C;" d="M288.183,380.02c-4.273,0-8.641-0.302-13.084-0.912l0,0c-9.42-1.291-16.077-10.065-14.842-19.559
					c3.261-25.066,25.602-43.749,50.922-42.499c3.029,0.148,6.153,0.359,9.459,0.583c7.863,0.532,15.991,1.081,22.534,0.714
					c8.39-0.471,9.796-2.277,9.808-2.295c0.888-3.193,4.189-5.047,7.381-4.16c3.192,0.887,5.055,4.208,4.168,7.401v0
					c-0.002,0.005-0.003,0.009-0.004,0.013c-5.575,20.048-16.465,36.293-31.492,46.979
					C320.268,375.36,304.952,380.02,288.183,380.02z M276.728,367.219c31.864,4.365,58.004-9.683,71.078-37.208
					c-7.93,0.949-17.817,0.28-27.978-0.407c-3.248-0.22-6.317-0.427-9.235-0.57c-19.071-0.935-35.975,13.151-38.436,32.062
					C271.77,364.075,273.82,366.82,276.728,367.219L276.728,367.219z"/>
			</g>
		</g>
	</g>
	<g>
		<path style="fill:#F28F4C;" d="M417.314,224.206c-1.58,0-3.13-0.64-4.24-1.76c-1.12-1.12-1.76-2.66-1.76-4.24
			c0-1.58,0.64-3.13,1.76-4.25c1.11-1.11,2.66-1.75,4.24-1.75s3.13,0.64,4.25,1.75c1.11,1.12,1.75,2.67,1.75,4.25
			c0,1.57-0.64,3.12-1.75,4.24C420.443,223.567,418.894,224.206,417.314,224.206z"/>
		<path style="fill:#F28F4C;" d="M113.964,443.346L113.964,443.346L113.964,443.346c-3.311-0.19-5.841-3.03-5.65-6.33l0,0
			c0.189-3.31,3.03-5.84,6.34-5.65l0,0c3.3,0.19,5.83,3.02,5.64,6.33l0,0c-0.18,3.2-2.829,5.66-5.989,5.66l0,0
			C114.193,443.357,114.073,443.357,113.964,443.346z M323.163,437.706c-0.199-3.31,2.33-6.15,5.63-6.35h0.011
			c3.3-0.19,6.14,2.34,6.34,5.64l0,0c0.189,3.31-2.34,6.15-5.641,6.34l0,0c-0.119,0.01-0.239,0.01-0.359,0.01l0,0
			C325.993,443.346,323.344,440.886,323.163,437.706z M310.814,442.936c-3.3-0.3-5.74-3.21-5.44-6.51l0,0
			c0.301-3.3,3.221-5.74,6.521-5.44l0,0c3.3,0.3,5.729,3.21,5.43,6.52l0,0c-0.28,3.11-2.899,5.46-5.96,5.46l0,0
			C311.174,442.966,310.993,442.956,310.814,442.936z M126.123,437.496c-0.29-3.3,2.13-6.22,5.44-6.52l0,0
			c3.3-0.3,6.22,2.13,6.52,5.43l0,0c0.301,3.3-2.14,6.22-5.439,6.52l0,0c-0.18,0.02-0.36,0.03-0.55,0.03l0,0
			C129.033,442.956,126.413,440.616,126.123,437.496z M95.243,440.466c0,0,0,0,0.01,0l0,0c-3.22-0.81-5.159-4.07-4.35-7.29l0,0
			c0.811-3.21,4.08-5.15,7.29-4.34l0,0c3.21,0.81,5.16,4.08,4.34,7.29l0,0c-0.689,2.72-3.13,4.53-5.81,4.53l0,0
			C96.233,440.656,95.743,440.596,95.243,440.466z M340.913,436.107c-0.81-3.21,1.13-6.47,4.34-7.29l0,0
			c3.211-0.82,6.48,1.13,7.29,4.34l0,0c0.82,3.21-1.13,6.47-4.34,7.29l0,0l0,0l0,0c-0.489,0.13-0.989,0.19-1.479,0.19l0,0
			C344.043,440.636,341.604,438.826,340.913,436.107z M292.453,440.066c-3.239-0.73-5.27-3.94-4.55-7.17l0,0
			c0.73-3.23,3.94-5.27,7.17-4.54l0,0c3.23,0.73,5.271,3.94,4.54,7.17l0,0c-0.62,2.79-3.1,4.69-5.85,4.69l0,0
			C293.333,440.216,292.894,440.166,292.453,440.066z M143.833,435.506c-0.72-3.24,1.311-6.45,4.54-7.17l0,0
			c3.23-0.73,6.44,1.3,7.17,4.53l0,0c0.73,3.23-1.3,6.44-4.54,7.17l0,0l0,0l0,0c-0.439,0.1-0.88,0.15-1.319,0.15l0,0
			C146.943,440.186,144.464,438.296,143.833,435.506z M274.613,434.816c-3.11-1.14-4.71-4.58-3.57-7.69l0,0
			c1.141-3.12,4.591-4.71,7.7-3.57l0,0c3.11,1.14,4.71,4.58,3.57,7.7l0,0c-0.89,2.43-3.19,3.93-5.63,3.93l0,0
			C275.993,435.186,275.293,435.066,274.613,434.816z M161.134,431.216c-1.141-3.1,0.46-6.55,3.569-7.69l0,0
			c3.11-1.15,6.561,0.45,7.7,3.56l0,0c1.14,3.11-0.45,6.56-3.56,7.7l0,0c-0.69,0.25-1.391,0.37-2.07,0.37l0,0
			C164.323,435.156,162.033,433.647,161.134,431.216z M77.413,434.096L77.413,434.096L77.413,434.096
			c-2.989-1.41-4.279-4.98-2.88-7.98l0,0c1.42-3,4.99-4.29,7.99-2.88l0,0c3,1.41,4.29,4.99,2.88,7.98l0,0
			c-1.03,2.18-3.189,3.45-5.439,3.45l0,0C79.113,434.666,78.243,434.486,77.413,434.096z M358.043,431.176
			c-1.409-3-0.13-6.57,2.87-7.98l0,0c3-1.41,6.57-0.13,7.99,2.87l0,0c1.41,3,0.12,6.57-2.87,7.98l0,0c0,0,0,0-0.01,0l0,0
			c-0.82,0.39-1.69,0.58-2.55,0.58l0,0C361.224,434.627,359.064,433.357,358.043,431.176z M257.623,427.296c0,0,0,0-0.01,0l0,0
			c-2.93-1.54-4.07-5.17-2.53-8.1l0,0c1.54-2.94,5.16-4.07,8.101-2.53l0,0c2.93,1.53,4.069,5.16,2.53,8.09l0,0
			c-1.07,2.05-3.16,3.22-5.32,3.22l0,0C259.453,427.976,258.503,427.756,257.623,427.296z M177.733,424.716
			c-1.54-2.93-0.41-6.56,2.53-8.1l0,0c2.93-1.53,6.56-0.41,8.1,2.53l0,0c1.53,2.93,0.4,6.56-2.53,8.1l0,0
			c-0.89,0.47-1.84,0.69-2.779,0.69l0,0C180.894,427.936,178.804,426.766,177.733,424.716z M61.134,424.456
			c-2.681-1.96-3.271-5.71-1.32-8.39l0,0c1.95-2.68,5.7-3.27,8.38-1.31l0,0c2.68,1.95,3.271,5.7,1.32,8.38l0,0
			c-1.181,1.61-3,2.47-4.86,2.47l0,0C63.434,425.607,62.193,425.226,61.134,424.456z M373.924,423.087
			c-1.95-2.68-1.37-6.43,1.31-8.39l0,0c2.68-1.95,6.43-1.37,8.38,1.31l0,0c1.96,2.68,1.37,6.43-1.31,8.38l0,0
			c-1.061,0.78-2.301,1.16-3.53,1.16l0,0C376.924,425.546,375.094,424.686,373.924,423.087z M241.753,417.616
			c-2.72-1.9-3.369-5.64-1.46-8.35l0,0c1.9-2.72,5.641-3.37,8.36-1.47h-0.01c2.71,1.91,3.37,5.65,1.46,8.36l0,0
			c-1.16,1.66-3.021,2.55-4.91,2.55l0,0C244.003,418.706,242.804,418.357,241.753,417.616z M193.333,416.116
			c-1.909-2.71-1.26-6.46,1.45-8.36l0,0c2.71-1.92,6.46-1.27,8.36,1.44l0,0c1.91,2.71,1.26,6.45-1.44,8.37l0,0
			c-1.06,0.73-2.26,1.09-3.46,1.09l0,0C196.363,418.656,194.503,417.766,193.333,416.116z M46.953,411.916
			c-2.26-2.43-2.13-6.22,0.29-8.49l0,0c2.42-2.26,6.21-2.13,8.48,0.29l0,0c2.26,2.42,2.13,6.22-0.29,8.48l0,0
			c-1.15,1.08-2.63,1.62-4.101,1.62l0,0C49.733,413.816,48.134,413.176,46.953,411.916z M387.983,412.127
			c-2.42-2.26-2.55-6.06-0.28-8.48l0,0c2.261-2.42,6.061-2.55,8.48-0.28l0,0c2.42,2.26,2.55,6.05,0.29,8.48l0,0
			c-1.19,1.26-2.79,1.9-4.391,1.9l0,0C390.613,413.746,389.144,413.216,387.983,412.127z M228.144,408.386
			c-3.07-1.25-4.54-4.76-3.28-7.82l0,0c1.25-3.07,4.76-4.54,7.83-3.28l0,0c3.06,1.25,4.53,4.76,3.271,7.82l0,0
			c-0.95,2.33-3.19,3.73-5.551,3.73l0,0C229.653,408.837,228.884,408.696,228.144,408.386z M207.474,405.046
			c-1.24-3.07,0.24-6.57,3.31-7.81l0,0c3.07-1.24,6.57,0.24,7.82,3.31l0,0c1.24,3.07-0.24,6.57-3.32,7.81l0,0
			c-0.729,0.3-1.5,0.44-2.24,0.44l0,0C210.663,408.796,208.424,407.386,207.474,405.046z M35.394,396.936c0,0,0,0-0.01,0l0,0
			c-1.771-2.8-0.931-6.51,1.869-8.28l0,0c2.801-1.77,6.511-0.93,8.28,1.87l0,0c1.771,2.8,0.931,6.51-1.87,8.28l0,0
			c-0.989,0.63-2.1,0.93-3.199,0.93l0,0C38.474,399.736,36.533,398.746,35.394,396.936z M399.753,398.736
			c-2.81-1.77-3.649-5.47-1.88-8.27l0,0c1.771-2.81,5.471-3.65,8.271-1.88l0,0c2.81,1.76,3.649,5.47,1.88,8.27l0,0l0,0l0,0
			c-1.14,1.81-3.09,2.8-5.08,2.8l0,0C401.854,399.656,400.743,399.366,399.753,398.736z M26.844,380.036c0,0,0,0,0.01,0l0,0
			c-1.21-3.08,0.31-6.56,3.399-7.77l0,0c3.091-1.2,6.57,0.32,7.771,3.41l0,0c1.21,3.09-0.32,6.57-3.4,7.77l0,0
			c-0.72,0.28-1.46,0.41-2.18,0.41l0,0C30.043,383.857,27.773,382.406,26.844,380.036z M408.783,383.366
			c-3.09-1.2-4.62-4.68-3.42-7.77l0,0c1.2-3.09,4.68-4.62,7.771-3.41l0,0c3.09,1.2,4.619,4.68,3.409,7.76l0,0
			c-0.92,2.38-3.189,3.83-5.59,3.83l0,0C410.233,383.776,409.493,383.647,408.783,383.366z M21.684,361.826
			c-0.601-3.26,1.56-6.39,4.819-6.98l0,0c3.261-0.6,6.381,1.56,6.98,4.82l0,0c0.6,3.26-1.56,6.39-4.82,6.98l0,0
			c-0.37,0.07-0.729,0.1-1.09,0.1l0,0C24.733,366.746,22.203,364.716,21.684,361.826z M414.724,366.556
			c-3.26-0.59-5.42-3.71-4.83-6.98l0,0c0.59-3.26,3.72-5.42,6.979-4.83l0,0c3.261,0.6,5.42,3.72,4.83,6.98l0,0
			c-0.529,2.9-3.06,4.93-5.899,4.93l0,0C415.443,366.656,415.083,366.627,414.724,366.556z M20.043,343.026c0-3.32,2.69-6.01,6-6.01
			l0,0c3.32,0,6,2.69,6,6.01l0,0c0,3.31-2.68,5.99-6,5.99l0,0C22.733,349.016,20.043,346.337,20.043,343.026z M411.314,342.926
			c0-3.32,2.689-6,6-6l0,0c3.31,0,6,2.68,6,6l0,0c0,3.31-2.69,6-6,6l0,0C414.003,348.926,411.314,346.236,411.314,342.926z
			 M20.043,325.206c0-3.32,2.69-6,6-6l0,0c3.32,0,6,2.68,6,6l0,0c0,3.31-2.68,6-6,6l0,0
			C22.733,331.206,20.043,328.516,20.043,325.206z M411.314,325.107c0-3.31,2.689-6,6-6l0,0c3.31,0,6,2.69,6,6l0,0
			c0,3.31-2.69,6-6,6l0,0C414.003,331.107,411.314,328.416,411.314,325.107z M20.043,307.386c0-3.31,2.69-6,6-6l0,0
			c3.32,0,6,2.69,6,6l0,0c0,3.31-2.68,6-6,6l0,0C22.733,313.386,20.043,310.696,20.043,307.386z M411.314,307.286
			c0-3.31,2.689-6,6-6l0,0c3.31,0,6,2.69,6,6l0,0c0,3.32-2.69,6-6,6l0,0C414.003,313.286,411.314,310.607,411.314,307.286z
			 M20.043,289.566c0-3.31,2.69-6,6-6l0,0c3.32,0,6,2.69,6,6l0,0c0,3.32-2.68,6-6,6l0,0
			C22.733,295.566,20.043,292.886,20.043,289.566z M411.314,289.476c0-3.32,2.689-6,6-6l0,0c3.31,0,6,2.68,6,6l0,0
			c0,3.31-2.69,6-6,6l0,0C414.003,295.476,411.314,292.786,411.314,289.476z M20.043,271.746c0-3.31,2.69-5.99,6-5.99l0,0
			c3.32,0,6,2.68,6,5.99l0,0c0,3.32-2.68,6.01-6,6.01l0,0C22.733,277.756,20.043,275.066,20.043,271.746z M411.314,271.656
			c0-3.32,2.689-6,6-6l0,0c3.31,0,6,2.68,6,6l0,0c0,3.31-2.69,6-6,6l0,0C414.003,277.656,411.314,274.966,411.314,271.656z
			 M20.043,253.936c0-3.32,2.69-6,6-6l0,0c3.32,0,6,2.68,6,6l0,0c0,3.31-2.68,6-6,6l0,0
			C22.733,259.936,20.043,257.246,20.043,253.936z M411.314,253.837c0-3.31,2.689-6,6-6l0,0c3.31,0,6,2.69,6,6l0,0
			c0,3.31-2.69,6-6,6l0,0C414.003,259.837,411.314,257.147,411.314,253.837z M20.043,236.116c0-3.31,2.69-6,6-6l0,0
			c3.32,0,6,2.69,6,6l0,0c0,3.31-2.68,6-6,6l0,0C22.733,242.116,20.043,239.426,20.043,236.116z M411.314,236.016
			c0-3.31,2.689-6,6-6l0,0c3.31,0,6,2.69,6,6l0,0c0,3.32-2.69,6-6,6l0,0C414.003,242.016,411.314,239.337,411.314,236.016z"/>
		<path style="fill:#F28F4C;" d="M26.043,224.206c-1.579,0-3.13-0.65-4.239-1.76c-1.12-1.12-1.761-2.66-1.761-4.24
			c0-1.58,0.641-3.13,1.761-4.25c1.109-1.11,2.66-1.75,4.239-1.75c1.58,0,3.131,0.64,4.24,1.75c1.12,1.12,1.76,2.67,1.76,4.25
			c0,1.58-0.64,3.12-1.76,4.24C29.174,223.556,27.623,224.206,26.043,224.206z"/>
		<path style="fill:#F28F4C;" d="M292.543,283.416c-3.319-0.02-5.989-2.71-5.979-6.03l0,0c0.01-3.31,2.7-5.99,6.02-5.98l0,0
			c3.311,0.02,5.99,2.71,5.98,6.03l0,0c-0.01,3.3-2.7,5.98-6,5.98l0,0C292.554,283.416,292.543,283.416,292.543,283.416z
			 M145.043,276.786c-0.029-3.31,2.631-6.02,5.95-6.05l0,0c3.311-0.02,6.021,2.64,6.05,5.95l0,0c0.03,3.32-2.64,6.03-5.949,6.05l0,0
			c-0.021,0-0.04,0-0.051,0l0,0C147.753,282.736,145.064,280.087,145.043,276.786z M304.403,277.127
			c-0.36-3.3,2.021-6.26,5.311-6.62l0,0c3.289-0.36,6.26,2.02,6.619,5.32l0,0c0.351,3.29-2.029,6.25-5.319,6.61l0,0
			c-0.221,0.03-0.44,0.04-0.66,0.04l0,0C307.333,282.476,304.733,280.196,304.403,277.127z M274.073,282.316
			c-3.29-0.38-5.649-3.36-5.27-6.65l0,0c0.38-3.29,3.35-5.65,6.649-5.27l0,0c3.29,0.38,5.65,3.36,5.271,6.65l0,0
			c-0.36,3.06-2.95,5.31-5.96,5.31l0,0C274.533,282.357,274.304,282.346,274.073,282.316z M132.613,281.857
			c-3.3-0.34-5.689-3.29-5.35-6.59l0,0c0.34-3.29,3.29-5.69,6.59-5.34l0,0c3.3,0.34,5.689,3.29,5.35,6.58l0,0
			c-0.319,3.09-2.93,5.39-5.96,5.39l0,0C133.033,281.897,132.823,281.877,132.613,281.857z M162.873,276.316
			c-0.39-3.29,1.95-6.28,5.24-6.67l0,0l0,0l0,0c3.29-0.4,6.28,1.94,6.68,5.23l0,0c0.391,3.29-1.949,6.28-5.239,6.68l0,0
			c-0.25,0.03-0.49,0.04-0.73,0.04l0,0C165.833,281.596,163.243,279.357,162.873,276.316z M322.094,274.866
			c-0.721-3.23,1.319-6.44,4.55-7.16l0,0c3.229-0.73,6.439,1.31,7.17,4.54l0,0c0.72,3.24-1.32,6.44-4.55,7.17l0,0
			c-0.44,0.1-0.88,0.14-1.32,0.14l0,0C325.203,279.556,322.724,277.656,322.094,274.866z M255.993,279.266
			c-3.25-0.66-5.35-3.82-4.7-7.07l0,0c0.66-3.25,3.83-5.35,7.07-4.7l0,0c3.25,0.66,5.351,3.83,4.7,7.07l0,0
			c-0.58,2.85-3.08,4.82-5.88,4.82l0,0C256.793,279.386,256.394,279.346,255.993,279.266z M114.354,278.926
			c-3.24-0.71-5.29-3.91-4.58-7.14l0,0c0.7-3.24,3.9-5.29,7.14-4.59l0,0c3.24,0.71,5.29,3.91,4.58,7.15l0,0
			c-0.609,2.8-3.1,4.72-5.859,4.72l0,0C115.214,279.066,114.783,279.016,114.354,278.926z M180.533,273.776
			c-0.689-3.24,1.38-6.43,4.62-7.12l0,0l0,0l0,0c3.24-0.69,6.42,1.38,7.11,4.62l0,0c0.689,3.24-1.38,6.43-4.62,7.12l0,0
			c-0.42,0.09-0.84,0.13-1.25,0.13l0,0C183.623,278.526,181.134,276.596,180.533,273.776z M238.873,276.236
			c-3.29-0.42-5.62-3.42-5.21-6.7l0,0c0.42-3.29,3.42-5.62,6.7-5.21l0,0c3.29,0.41,5.62,3.41,5.21,6.7l0,0
			c-0.38,3.04-2.97,5.25-5.95,5.25l0,0C239.373,276.276,239.123,276.266,238.873,276.236z M198.043,270.386
			c-0.319-3.3,2.091-6.24,5.391-6.56l0,0c3.3-0.33,6.229,2.09,6.56,5.38l0,0c0.32,3.3-2.09,6.24-5.39,6.56l0,0
			c-0.2,0.02-0.4,0.03-0.59,0.03l0,0C200.964,275.796,198.354,273.486,198.043,270.386z M221.753,275.046L221.753,275.046
			c-3.319-0.05-5.97-2.77-5.92-6.08l0,0c0.04-3.32,2.771-5.97,6.08-5.92l0,0l0,0l0,0c3.311,0.04,5.96,2.77,5.92,6.08l0,0
			c-0.05,3.28-2.729,5.92-6,5.92l0,0C221.804,275.046,221.773,275.046,221.753,275.046z M339.434,270.656
			c-1.08-3.13,0.59-6.55,3.729-7.63l0,0c3.13-1.07,6.54,0.59,7.62,3.73l0,0c1.08,3.13-0.59,6.54-3.72,7.62l0,0
			c-0.65,0.22-1.311,0.33-1.95,0.33l0,0C342.623,274.706,340.293,273.147,339.434,270.656z M96.533,273.976
			c-3.14-1.06-4.83-4.47-3.76-7.61l0,0c1.06-3.13,4.46-4.82,7.6-3.75l0,0c3.141,1.06,4.83,4.46,3.761,7.6l0,0
			c-0.841,2.5-3.181,4.08-5.681,4.08l0,0C97.814,274.296,97.163,274.196,96.533,273.976z M356.193,264.546
			c-1.42-2.99-0.14-6.57,2.86-7.99l0,0c2.989-1.42,6.569-0.15,7.989,2.85l0,0c1.41,2.99,0.141,6.57-2.859,7.99l0,0
			c-0.83,0.39-1.7,0.58-2.561,0.58l0,0C359.373,267.976,357.224,266.706,356.193,264.546z M79.363,267.087
			c-3-1.41-4.29-4.98-2.89-7.98l0,0c1.41-3,4.979-4.3,7.979-2.89l0,0c3,1.4,4.3,4.98,2.891,7.98l0,0
			c-1.021,2.17-3.181,3.45-5.44,3.45l0,0C81.054,267.647,80.193,267.466,79.363,267.087z M372.174,256.607
			c-1.74-2.81-0.87-6.51,1.949-8.26l0,0c2.811-1.74,6.511-0.87,8.25,1.95l0,0c1.75,2.82,0.88,6.51-1.939,8.26l0,0
			c-0.98,0.61-2.07,0.9-3.15,0.9l0,0C375.273,259.456,373.314,258.446,372.174,256.607z M63.073,258.316
			c-2.82-1.73-3.71-5.42-1.979-8.25l0,0c1.729-2.82,5.42-3.71,8.25-1.98l0,0c2.819,1.73,3.71,5.42,1.979,8.25l0,0
			c-1.13,1.85-3.1,2.87-5.12,2.87l0,0C65.134,259.206,64.054,258.916,63.073,258.316z M387.163,246.946
			c-2.04-2.61-1.59-6.38,1.021-8.42l0,0c0,0,0,0,0-0.01l0,0c2.6-2.04,6.37-1.59,8.42,1.02l0,0c2.05,2.6,1.6,6.38-1.01,8.42l0,0
			c-1.101,0.86-2.41,1.28-3.7,1.28l0,0C390.113,249.236,388.354,248.456,387.163,246.946z M47.863,247.796
			c-2.62-2.04-3.09-5.8-1.06-8.42l0,0c2.04-2.62,5.81-3.09,8.42-1.05l0,0c2.62,2.03,3.09,5.8,1.06,8.42l0,0
			c-1.189,1.52-2.95,2.31-4.74,2.31l0,0C50.253,249.056,48.953,248.647,47.863,247.796z M400.993,235.676
			c-2.319-2.37-2.3-6.17,0.07-8.49l0,0c2.36-2.32,6.16-2.29,8.479,0.07l0,0c2.33,2.36,2.301,6.16-0.069,8.48l0,0
			c-1.17,1.15-2.69,1.73-4.21,1.73l0,0C403.714,237.466,402.163,236.866,400.993,235.676z M33.913,235.636L33.913,235.636
			c-2.37-2.31-2.42-6.11-0.109-8.48l0,0c2.319-2.37,6.109-2.42,8.489-0.11l0,0c2.37,2.31,2.421,6.11,0.101,8.49l0,0
			c-1.17,1.2-2.73,1.81-4.29,1.81l0,0C36.594,237.346,35.083,236.776,33.913,235.636z"/>
	</g>
</g>
<g>
</g>
<g>
</g>
<g>
</g>
<g>
</g>
<g>
</g>
<g>
</g>
<g>
</g>
<g>
</g>
<g>
</g>
<g>
</g>
<g>
</g>
<g>
</g>
<g>
</g>
<g>
</g>
<g>
</g>
</svg>
